<svg width="201" height="59" viewBox="0 0 201 59" fill="none" xmlns="http://www.w3.org/2000/svg">
<rect width="201" height="59" fill="#D9D9D9"/>
<g filter="url(#filter0_i_1_5)">
<path d="M25.632 34.928C25.12 34.928 24.6507 34.8533 24.224 34.704C23.8187 34.576 23.616 34.384 23.616 34.128C23.616 33.9573 23.7013 33.8187 23.872 33.712C24.0427 33.6053 24.2347 33.552 24.448 33.552C23.04 33.2533 22.0373 32.7413 21.44 32.016C20.864 31.2693 20.576 30.4053 20.576 29.424C20.576 28.6133 20.736 27.76 21.056 26.864C21.3973 25.9467 21.8347 25.0613 22.368 24.208C23.4987 22.3947 24.7147 20.944 26.016 19.856C27.3387 18.768 28.8 17.776 30.4 16.88C29.9947 17.072 29.5787 17.2747 29.152 17.488C28.7467 17.68 28.3627 17.8827 28 18.096C27.8507 18.1813 27.7227 18.224 27.616 18.224C27.5307 18.224 27.5627 18.1813 27.712 18.096C28.416 17.6907 29.248 17.264 30.208 16.816C31.168 16.3467 32.0107 15.9413 32.736 15.6C34.5707 14.7253 36.4267 14.0427 38.304 13.552C40.1813 13.0613 41.824 12.816 43.232 12.816C44.064 12.816 44.768 12.912 45.344 13.104C45.6 13.5093 45.7813 13.8827 45.888 14.224C45.9947 14.544 46.048 14.832 46.048 15.088C46.048 15.3013 46.016 15.4827 45.952 15.632C45.9093 15.7813 45.8667 15.9093 45.824 16.016C45.9307 15.952 46.0267 15.8453 46.112 15.696C46.2187 15.5467 46.304 15.3973 46.368 15.248C46.432 15.0987 46.464 14.9707 46.464 14.864C46.4853 14.7573 46.5173 14.6507 46.56 14.544C46.6027 14.48 46.72 14.5227 46.912 14.672C47.104 14.8213 47.2853 15.0133 47.456 15.248C47.648 15.4827 47.7333 15.696 47.712 15.888C47.6907 16.2507 47.5093 16.688 47.168 17.2C46.848 17.712 46.4427 18.2133 45.952 18.704C45.4827 19.1733 45.0027 19.568 44.512 19.888C44.0213 20.1867 43.5947 20.3147 43.232 20.272C42.8907 20.6347 42.3893 21.072 41.728 21.584C41.0667 22.096 40.3307 22.5973 39.52 23.088C38.7307 23.5787 37.9627 23.9947 37.216 24.336C36.4693 24.6773 35.8507 24.8587 35.36 24.88C35.2533 24.816 35.0613 24.6453 34.784 24.368C34.5067 24.0907 34.2507 23.7813 34.016 23.44C33.7813 23.0773 33.664 22.7467 33.664 22.448C33.664 22.384 33.6853 22.288 33.728 22.16C33.8133 22.0107 33.9947 21.7333 34.272 21.328C34.5493 20.9227 34.912 20.496 35.36 20.048C35.8293 19.5787 36.3947 19.216 37.056 18.96C37.184 18.896 37.28 18.864 37.344 18.864C37.4507 18.864 37.4613 18.9493 37.376 19.12C37.312 19.2907 37.056 19.6213 36.608 20.112C36.5227 20.1973 36.352 20.3787 36.096 20.656C35.8613 20.9333 35.6373 21.2213 35.424 21.52C35.232 21.8187 35.136 22.0747 35.136 22.288C35.136 22.544 35.3493 22.64 35.776 22.576C36.352 22.4907 37.0027 22.288 37.728 21.968C38.4747 21.648 39.2213 21.264 39.968 20.816C40.7147 20.368 41.4293 19.8987 42.112 19.408C42.7947 18.9173 43.3707 18.448 43.84 18C44.6293 17.232 45.024 16.6347 45.024 16.208C45.024 15.9307 44.896 15.728 44.64 15.6C44.4053 15.472 44.0747 15.408 43.648 15.408C43.5627 15.408 43.456 15.4187 43.328 15.44C43.2213 15.44 43.104 15.4507 42.976 15.472C41.7387 15.6427 40.4053 15.92 38.976 16.304C37.568 16.688 36.128 17.2 34.656 17.84C33.184 18.4587 31.7653 19.216 30.4 20.112C29.056 20.9867 27.8293 22.0107 26.72 23.184C25.6107 24.336 24.704 25.6587 24 27.152C23.5093 28.176 23.264 29.0613 23.264 29.808C23.264 30.4693 23.4667 31.0027 23.872 31.408C24.2987 31.792 24.992 31.984 25.952 31.984C26.7627 31.984 27.7973 31.8133 29.056 31.472C30.336 31.1307 31.8613 30.5653 33.632 29.776C33.2267 29.968 32.864 30.1387 32.544 30.288C32.224 30.416 31.9467 30.5333 31.712 30.64C31.52 30.7253 31.2213 30.8427 30.816 30.992C30.432 31.12 30.0907 31.2373 29.792 31.344C29.4933 31.4293 29.3653 31.472 29.408 31.472C29.7707 31.472 30.2507 31.376 30.848 31.184C31.4667 30.992 32.0853 30.7573 32.704 30.48C33.344 30.2027 33.8453 29.9573 34.208 29.744C34.6987 29.488 35.2107 29.2107 35.744 28.912C36.2773 28.592 36.8107 28.2827 37.344 27.984C36.6827 28.3253 36.032 28.6453 35.392 28.944C34.7733 29.2427 34.1867 29.52 33.632 29.776L34.336 29.424C34.4853 29.3387 34.7733 29.1787 35.2 28.944C35.648 28.688 36.16 28.4 36.736 28.08C37.312 27.7387 37.8987 27.408 38.496 27.088C39.0933 26.7467 39.616 26.448 40.064 26.192C40.5333 25.9147 40.8747 25.7227 41.088 25.616C40.9173 25.7867 40.4693 26.096 39.744 26.544C39.04 26.992 38.24 27.472 37.344 27.984C38.752 27.2587 40.3093 26.416 42.016 25.456C42.3147 25.2853 42.528 25.2 42.656 25.2C42.8267 25.2 42.8587 25.3067 42.752 25.52C42.6667 25.712 42.4533 25.9893 42.112 26.352C41.4507 27.0133 40.576 27.7387 39.488 28.528C38.4 29.296 37.2053 30.064 35.904 30.832C34.6027 31.5787 33.28 32.2613 31.936 32.88C30.592 33.4773 29.3333 33.936 28.16 34.256V34.288C28.16 34.3733 28.0853 34.4693 27.936 34.576C27.7013 34.704 27.36 34.7893 26.912 34.832C26.464 34.896 26.0373 34.928 25.632 34.928ZM30.752 16.816C32.1387 16.176 33.6107 15.6 35.168 15.088C36.7467 14.576 38.2613 14.1813 39.712 13.904C41.1627 13.6053 42.3893 13.456 43.392 13.456C43.6907 13.456 43.84 13.4347 43.84 13.392C43.84 13.3493 43.7653 13.3173 43.616 13.296C43.488 13.2533 43.3493 13.2427 43.2 13.264C42.5813 13.3067 41.7387 13.4027 40.672 13.552C39.6267 13.68 38.4747 13.8933 37.216 14.192C35.9573 14.4907 34.6987 14.9173 33.44 15.472C33.0347 15.664 32.5867 15.8773 32.096 16.112C31.6053 16.3467 31.1573 16.5813 30.752 16.816ZM44.3193 34.256C44.0206 34.256 43.7006 34.192 43.3593 34.064C43.0393 33.9573 42.7513 33.7867 42.4953 33.552C42.2393 33.3173 41.9619 32.9653 41.6633 32.496C41.3859 32.0053 41.2473 31.5253 41.2473 31.056C41.2473 30.864 41.2793 30.6933 41.3433 30.544C42.0259 28.7093 43.1353 27.0347 44.6713 25.52C46.2073 23.984 48.0846 22.6933 50.3033 21.648C50.6019 21.648 50.9113 21.7653 51.2313 22C51.5513 22.2133 51.8179 22.48 52.0313 22.8L52.6073 22.992C52.5859 22.7573 52.5113 22.6187 52.3833 22.576C52.2553 22.512 52.1913 22.4267 52.1913 22.32C52.2339 22.128 52.3726 22.0213 52.6073 22C52.8419 21.9573 53.0126 21.936 53.1193 21.936C53.4606 21.936 53.7379 22.096 53.9513 22.416C54.1859 22.7147 54.3139 23.0453 54.3353 23.408C54.8473 23.472 55.3806 23.5147 55.9353 23.536C56.4899 23.5573 56.9699 23.5787 57.3753 23.6C57.8019 23.6 58.0366 23.6 58.0793 23.6H58.1753C58.2393 23.6 58.2713 23.6427 58.2713 23.728C58.2713 23.8773 58.1859 24.0053 58.0153 24.112C57.8019 24.2827 57.3006 24.4 56.5113 24.464C55.7433 24.5067 54.9326 24.528 54.0793 24.528C53.9726 24.848 53.8126 25.1893 53.5993 25.552C53.3859 25.9147 53.1406 26.288 52.8633 26.672C52.6713 26.9493 52.3833 27.3227 51.9993 27.792C51.6153 28.24 51.2206 28.6987 50.8153 29.168C50.4099 29.6373 50.0686 30.032 49.7913 30.352C49.9833 30.1813 50.2926 29.8827 50.7193 29.456C51.1673 29.008 51.5299 28.6133 51.8073 28.272C51.9139 28.144 52.0739 27.9413 52.2873 27.664C52.5006 27.3653 52.7033 27.088 52.8953 26.832C53.1086 26.5547 53.2366 26.3733 53.2793 26.288C53.0019 26.864 52.6499 27.4187 52.2233 27.952C51.7966 28.4853 51.3699 28.9653 50.9433 29.392C50.5166 29.8187 50.1539 30.1707 49.8553 30.448C49.5566 30.704 49.3859 30.8533 49.3433 30.896C48.4473 31.8347 47.5406 32.6347 46.6233 33.296C45.7273 33.936 44.9593 34.256 44.3193 34.256ZM43.2953 33.168C43.4019 33.168 43.5299 33.136 43.6793 33.072C43.9139 32.944 44.2126 32.7413 44.5753 32.464C44.9593 32.1867 45.3539 31.8987 45.7593 31.6C46.1219 31.3013 46.5273 30.9387 46.9753 30.512C47.4233 30.064 47.9139 29.5413 48.4473 28.944C48.9166 28.4107 49.4179 27.8347 49.9513 27.216C50.4846 26.576 51.0073 25.9147 51.5193 25.232L51.0393 25.68C51.1886 25.5307 51.3699 25.328 51.5833 25.072C51.8179 24.7947 52.0099 24.5813 52.1593 24.432C51.4979 24.3893 51.1033 24.3573 50.9753 24.336C50.9539 24.3787 50.9219 24.4 50.8793 24.4C50.8366 24.4 50.8153 24.3253 50.8153 24.176C50.8153 24.1333 50.8153 24.08 50.8153 24.016C50.8153 23.9307 50.8259 23.8453 50.8473 23.76C50.6339 23.7387 50.3993 23.7707 50.1433 23.856C49.8873 23.9413 49.5993 24.1227 49.2793 24.4C48.9166 24.7413 48.4473 25.168 47.8713 25.68C47.2953 26.192 46.6979 26.7787 46.0793 27.44C45.4606 28.08 44.8739 28.7733 44.3193 29.52C43.7859 30.2667 43.3593 31.056 43.0393 31.888C42.9326 32.144 42.8793 32.4 42.8793 32.656C42.8793 33.0187 43.0393 33.1253 43.3593 32.976C43.2526 33.04 43.1993 33.0827 43.1993 33.104C43.1993 33.1467 43.2313 33.168 43.2953 33.168ZM43.3593 32.976C43.7646 32.7627 44.4046 32.3147 45.2793 31.632C46.1753 30.928 47.0819 30.0747 47.9993 29.072C48.2979 28.752 48.6393 28.3893 49.0233 27.984C49.4073 27.5573 49.7806 27.152 50.1433 26.768C50.5059 26.384 50.7833 26.0853 50.9753 25.872C50.4846 26.4693 50.0259 27.0133 49.5993 27.504C49.1939 27.9733 48.7993 28.4213 48.4153 28.848C47.5193 29.808 46.6019 30.672 45.6633 31.44C44.7459 32.208 43.9779 32.72 43.3593 32.976ZM53.6953 35.568C53.5033 35.568 53.2793 35.472 53.0233 35.28C52.7673 35.088 52.5326 34.8747 52.3193 34.64C52.1273 34.4053 52.0312 34.2133 52.0312 34.064C52.0312 33.936 52.0739 33.872 52.1593 33.872C52.2446 33.872 52.3619 33.904 52.5113 33.968C52.6606 34.032 52.8526 34.064 53.0872 34.064C52.9593 33.8933 52.8633 33.7013 52.7993 33.488C52.7353 33.2533 52.7033 33.04 52.7033 32.848C52.7033 32.528 52.8633 32.0373 53.1833 31.376C53.5246 30.7147 53.9513 29.968 54.4633 29.136C54.9966 28.304 55.5299 27.4827 56.0633 26.672C56.6179 25.8613 57.1193 25.1467 57.5673 24.528C58.0153 23.888 58.3353 23.44 58.5273 23.184C57.9513 23.8453 57.4819 24.4 57.1193 24.848C56.7566 25.2747 56.5539 25.488 56.5113 25.488C56.4686 25.488 56.6499 25.1787 57.0553 24.56C57.4606 23.9413 58.1753 22.8853 59.1993 21.392C59.4126 21.392 59.6899 21.4987 60.0312 21.712C60.3939 21.9253 60.7139 22.1707 60.9913 22.448C61.2899 22.7253 61.4392 22.9813 61.4392 23.216C61.1833 23.6427 60.7779 24.208 60.2233 24.912C59.6686 25.5947 59.0819 26.2987 58.4633 27.024C57.8446 27.7493 57.3113 28.3893 56.8633 28.944C56.9486 28.88 57.2259 28.6347 57.6953 28.208C58.1646 27.7813 58.7299 27.28 59.3913 26.704C60.0739 26.128 60.7566 25.552 61.4392 24.976C62.1433 24.4 62.7619 23.92 63.2953 23.536C63.8286 23.152 64.1699 22.9493 64.3193 22.928C64.4259 22.928 64.5966 23.0133 64.8313 23.184C65.0659 23.3547 65.3006 23.568 65.5353 23.824C65.7699 24.0587 65.9513 24.2933 66.0793 24.528C66.2286 24.7413 66.2713 24.9013 66.2073 25.008C66.0579 25.2213 65.7806 25.6373 65.3753 26.256C64.9913 26.8533 64.5646 27.536 64.0953 28.304C63.6473 29.072 63.2419 29.808 62.8793 30.512C63.1566 30.2987 63.5299 29.9467 63.9993 29.456C64.4899 28.944 65.0446 28.3573 65.6633 27.696C66.2819 27.0133 66.9219 26.3307 67.5833 25.648C68.2446 24.944 68.8846 24.2827 69.5033 23.664C70.1433 23.0453 70.7193 22.544 71.2313 22.16L71.3593 22.064L71.4873 21.904C71.5939 21.904 71.7539 22 71.9673 22.192C72.1806 22.384 72.3939 22.6187 72.6073 22.896C72.8206 23.1733 72.9806 23.4293 73.0873 23.664C73.2153 23.8987 73.2366 24.0693 73.1513 24.176C73.0233 24.3253 72.7673 24.656 72.3833 25.168C71.9993 25.68 71.5513 26.288 71.0393 26.992C70.5273 27.696 70.0259 28.4107 69.5353 29.136C69.0659 29.84 68.6713 30.4693 68.3513 31.024L71.0073 29.328C71.2206 29.2 71.2206 29.2107 71.0073 29.36C70.7939 29.5093 70.5166 29.712 70.1753 29.968C69.8553 30.2027 69.6099 30.3947 69.4393 30.544C69.3753 30.608 69.2899 30.7147 69.1833 30.864C69.0979 31.0133 69.0873 31.056 69.1513 30.992C69.4926 30.6933 69.9299 30.352 70.4633 29.968C71.0179 29.584 71.5833 29.2 72.1593 28.816C72.7353 28.4107 73.2579 28.0587 73.7273 27.76C73.3219 27.9733 72.9059 28.1973 72.4793 28.432C72.0526 28.6453 71.6259 28.9013 71.1993 29.2L71.7753 28.784C72.0099 28.6133 72.3299 28.4107 72.7353 28.176C73.1406 27.92 73.5459 27.6853 73.9513 27.472C74.3566 27.2373 74.6553 27.088 74.8473 27.024L73.7273 27.76L75.4233 26.96C75.5299 26.9173 75.6153 26.8853 75.6793 26.864C75.7433 26.8427 75.7966 26.832 75.8393 26.832C76.0526 26.832 76.0633 26.9707 75.8713 27.248C75.7006 27.5253 75.4553 27.7493 75.1353 27.92C74.6233 28.176 74.0153 28.5813 73.3113 29.136C72.6286 29.6693 71.9033 30.2773 71.1353 30.96C70.3886 31.6213 69.6633 32.2827 68.9593 32.944C68.2766 33.584 67.6899 34.16 67.1993 34.672C66.7299 34.2453 66.4846 33.84 66.4633 33.456C66.4633 33.072 66.4526 32.7093 66.4313 32.368C66.4313 32.304 66.5486 32.0373 66.7833 31.568C66.7406 31.3547 66.7406 31.152 66.7833 30.96C66.8046 30.64 66.9433 30.1387 67.1993 29.456C67.4553 28.752 67.8073 27.9627 68.2553 27.088C68.7033 26.192 69.1939 25.3067 69.7273 24.432C69.1726 25.0507 68.5539 25.744 67.8713 26.512C67.1886 27.28 66.5059 28.0587 65.8233 28.848C65.1619 29.6373 64.5753 30.3627 64.0633 31.024C63.5513 31.6853 63.1886 32.2293 62.9753 32.656C62.8046 32.7627 62.6446 32.816 62.4953 32.816C62.3673 32.816 62.2286 32.7627 62.0793 32.656C61.9299 32.6347 61.7913 32.496 61.6633 32.24C61.5566 31.9627 61.4713 31.632 61.4073 31.248C61.4073 31.312 61.3966 31.3867 61.3753 31.472C61.3539 31.536 61.3433 31.6 61.3433 31.664V31.696C61.3219 31.696 61.3006 31.6213 61.2793 31.472C61.2579 31.3227 61.2579 31.2053 61.2793 31.12L61.3753 30.608V30.704C61.3753 30.7893 61.3753 30.8747 61.3753 30.96C61.3966 31.0453 61.4073 31.1413 61.4073 31.248C61.5353 30.6293 61.7059 29.9467 61.9193 29.2C62.1539 28.432 62.3779 27.7173 62.5913 27.056C62.8259 26.3947 62.9859 25.904 63.0713 25.584C62.9646 25.776 62.8153 26.0853 62.6233 26.512C62.4526 26.9387 62.2819 27.3867 62.1113 27.856C61.9619 28.304 61.8446 28.656 61.7593 28.912C61.6313 29.3813 61.5459 29.7227 61.5033 29.936C61.4606 30.128 61.4179 30.3413 61.3753 30.576C61.3753 30.2347 61.4286 29.7973 61.5353 29.264C61.6633 28.7307 61.8126 28.176 61.9833 27.6C62.1753 27.024 62.3566 26.5013 62.5273 26.032C62.6979 25.5627 62.8259 25.232 62.9113 25.04C62.5913 25.36 62.0686 25.8613 61.3433 26.544C60.6393 27.2053 59.8606 27.9627 59.0073 28.816C58.1753 29.648 57.3646 30.4907 56.5753 31.344C55.8073 32.176 55.1779 32.9227 54.6873 33.584C54.7726 33.5627 54.8793 33.552 55.0073 33.552C55.1779 33.552 55.3593 33.6053 55.5513 33.712C55.7433 33.8187 55.8393 33.9573 55.8393 34.128C55.8393 34.2773 55.7113 34.4587 55.4553 34.672C55.1993 34.9067 54.9006 35.1093 54.5593 35.28C54.2179 35.472 53.9299 35.568 53.6953 35.568ZM74.4765 35.568C74.2845 35.568 74.0605 35.472 73.8045 35.28C73.5485 35.088 73.3138 34.8747 73.1005 34.64C72.9085 34.4053 72.8125 34.2133 72.8125 34.064C72.8125 33.936 72.8552 33.872 72.9405 33.872C73.0258 33.872 73.1432 33.904 73.2925 33.968C73.4418 34.032 73.6338 34.064 73.8685 34.064C73.7405 33.8933 73.6445 33.7013 73.5805 33.488C73.5165 33.2533 73.4845 33.04 73.4845 32.848C73.4845 32.528 73.6445 32.0373 73.9645 31.376C74.3058 30.7147 74.7325 29.968 75.2445 29.136C75.7778 28.304 76.3112 27.4827 76.8445 26.672C77.3992 25.8613 77.9005 25.1467 78.3485 24.528C78.7965 23.888 79.1165 23.44 79.3085 23.184C78.7325 23.8453 78.2632 24.4 77.9005 24.848C77.5378 25.2747 77.3352 25.488 77.2925 25.488C77.2498 25.488 77.4312 25.1787 77.8365 24.56C78.2418 23.9413 78.9565 22.8853 79.9805 21.392C80.1938 21.392 80.4712 21.4987 80.8125 21.712C81.1752 21.9253 81.4952 22.1707 81.7725 22.448C82.0712 22.7253 82.2205 22.9813 82.2205 23.216C81.9645 23.6427 81.5592 24.208 81.0045 24.912C80.4498 25.5947 79.8632 26.2987 79.2445 27.024C78.6258 27.7493 78.0925 28.3893 77.6445 28.944C77.7298 28.88 78.0072 28.6347 78.4765 28.208C78.9458 27.7813 79.5112 27.28 80.1725 26.704C80.8552 26.128 81.5378 25.552 82.2205 24.976C82.9245 24.4 83.5432 23.92 84.0765 23.536C84.6098 23.152 84.9512 22.9493 85.1005 22.928C85.2072 22.928 85.3778 23.0133 85.6125 23.184C85.8472 23.3547 86.0818 23.568 86.3165 23.824C86.5512 24.0587 86.7325 24.2933 86.8605 24.528C87.0098 24.7413 87.0525 24.9013 86.9885 25.008C86.8392 25.2213 86.5618 25.6373 86.1565 26.256C85.7725 26.8533 85.3458 27.536 84.8765 28.304C84.4285 29.072 84.0232 29.808 83.6605 30.512C83.9378 30.2987 84.3112 29.9467 84.7805 29.456C85.2712 28.944 85.8258 28.3573 86.4445 27.696C87.0632 27.0133 87.7032 26.3307 88.3645 25.648C89.0258 24.944 89.6658 24.2827 90.2845 23.664C90.9245 23.0453 91.5005 22.544 92.0125 22.16L92.1405 22.064L92.2685 21.904C92.3752 21.904 92.5352 22 92.7485 22.192C92.9618 22.384 93.1752 22.6187 93.3885 22.896C93.6018 23.1733 93.7618 23.4293 93.8685 23.664C93.9965 23.8987 94.0178 24.0693 93.9325 24.176C93.8045 24.3253 93.5485 24.656 93.1645 25.168C92.7805 25.68 92.3325 26.288 91.8205 26.992C91.3085 27.696 90.8072 28.4107 90.3165 29.136C89.8472 29.84 89.4525 30.4693 89.1325 31.024L91.7885 29.328C92.0018 29.2 92.0018 29.2107 91.7885 29.36C91.5752 29.5093 91.2978 29.712 90.9565 29.968C90.6365 30.2027 90.3912 30.3947 90.2205 30.544C90.1565 30.608 90.0712 30.7147 89.9645 30.864C89.8792 31.0133 89.8685 31.056 89.9325 30.992C90.2738 30.6933 90.7112 30.352 91.2445 29.968C91.7992 29.584 92.3645 29.2 92.9405 28.816C93.5165 28.4107 94.0392 28.0587 94.5085 27.76C94.1032 27.9733 93.6872 28.1973 93.2605 28.432C92.8338 28.6453 92.4072 28.9013 91.9805 29.2L92.5565 28.784C92.7912 28.6133 93.1112 28.4107 93.5165 28.176C93.9218 27.92 94.3272 27.6853 94.7325 27.472C95.1378 27.2373 95.4365 27.088 95.6285 27.024L94.5085 27.76L96.2045 26.96C96.3112 26.9173 96.3965 26.8853 96.4605 26.864C96.5245 26.8427 96.5778 26.832 96.6205 26.832C96.8338 26.832 96.8445 26.9707 96.6525 27.248C96.4818 27.5253 96.2365 27.7493 95.9165 27.92C95.4045 28.176 94.7965 28.5813 94.0925 29.136C93.4098 29.6693 92.6845 30.2773 91.9165 30.96C91.1698 31.6213 90.4445 32.2827 89.7405 32.944C89.0578 33.584 88.4712 34.16 87.9805 34.672C87.5112 34.2453 87.2658 33.84 87.2445 33.456C87.2445 33.072 87.2338 32.7093 87.2125 32.368C87.2125 32.304 87.3298 32.0373 87.5645 31.568C87.5218 31.3547 87.5218 31.152 87.5645 30.96C87.5858 30.64 87.7245 30.1387 87.9805 29.456C88.2365 28.752 88.5885 27.9627 89.0365 27.088C89.4845 26.192 89.9752 25.3067 90.5085 24.432C89.9538 25.0507 89.3352 25.744 88.6525 26.512C87.9698 27.28 87.2872 28.0587 86.6045 28.848C85.9432 29.6373 85.3565 30.3627 84.8445 31.024C84.3325 31.6853 83.9698 32.2293 83.7565 32.656C83.5858 32.7627 83.4258 32.816 83.2765 32.816C83.1485 32.816 83.0098 32.7627 82.8605 32.656C82.7112 32.6347 82.5725 32.496 82.4445 32.24C82.3378 31.9627 82.2525 31.632 82.1885 31.248C82.1885 31.312 82.1778 31.3867 82.1565 31.472C82.1352 31.536 82.1245 31.6 82.1245 31.664V31.696C82.1032 31.696 82.0818 31.6213 82.0605 31.472C82.0392 31.3227 82.0392 31.2053 82.0605 31.12L82.1565 30.608V30.704C82.1565 30.7893 82.1565 30.8747 82.1565 30.96C82.1778 31.0453 82.1885 31.1413 82.1885 31.248C82.3165 30.6293 82.4872 29.9467 82.7005 29.2C82.9352 28.432 83.1592 27.7173 83.3725 27.056C83.6072 26.3947 83.7672 25.904 83.8525 25.584C83.7458 25.776 83.5965 26.0853 83.4045 26.512C83.2338 26.9387 83.0632 27.3867 82.8925 27.856C82.7432 28.304 82.6258 28.656 82.5405 28.912C82.4125 29.3813 82.3272 29.7227 82.2845 29.936C82.2418 30.128 82.1992 30.3413 82.1565 30.576C82.1565 30.2347 82.2098 29.7973 82.3165 29.264C82.4445 28.7307 82.5938 28.176 82.7645 27.6C82.9565 27.024 83.1378 26.5013 83.3085 26.032C83.4792 25.5627 83.6072 25.232 83.6925 25.04C83.3725 25.36 82.8498 25.8613 82.1245 26.544C81.4205 27.2053 80.6418 27.9627 79.7885 28.816C78.9565 29.648 78.1458 30.4907 77.3565 31.344C76.5885 32.176 75.9592 32.9227 75.4685 33.584C75.5538 33.5627 75.6605 33.552 75.7885 33.552C75.9592 33.552 76.1405 33.6053 76.3325 33.712C76.5245 33.8187 76.6205 33.9573 76.6205 34.128C76.6205 34.2773 76.4925 34.4587 76.2365 34.672C75.9805 34.9067 75.6818 35.1093 75.3405 35.28C74.9992 35.472 74.7112 35.568 74.4765 35.568ZM97.4338 34.224C96.9644 34.224 96.4631 34.0427 95.9298 33.68C95.3964 33.3173 94.9378 32.8907 94.5538 32.4C94.1911 31.9093 94.0098 31.4613 94.0098 31.056C94.0098 30.288 94.2338 29.4667 94.6818 28.592C95.1511 27.696 95.7484 26.8213 96.4738 25.968C97.2204 25.1147 98.0098 24.3573 98.8418 23.696C99.6738 23.0347 100.474 22.5547 101.242 22.256C101.455 22.1707 101.647 22.1173 101.818 22.096C101.988 22.0747 102.116 22.064 102.202 22.064C102.458 22.064 102.756 22.2453 103.098 22.608C103.439 22.9493 103.748 23.3227 104.026 23.728C104.303 24.1333 104.463 24.4427 104.506 24.656C104.506 24.9973 104.303 25.4133 103.898 25.904C103.514 26.3733 103.002 26.864 102.362 27.376C101.722 27.8667 101.028 28.3253 100.282 28.752C99.5564 29.1787 98.8524 29.52 98.1698 29.776C97.4871 30.0107 96.9004 30.1173 96.4098 30.096C96.0684 30.7147 95.8978 31.2267 95.8978 31.632C95.8978 31.8453 95.9511 32.0373 96.0578 32.208C96.1644 32.3573 96.3778 32.4213 96.6978 32.4C97.2098 32.2293 97.8498 31.92 98.6178 31.472C99.3858 31.024 100.207 30.5227 101.082 29.968C101.978 29.392 102.852 28.8373 103.706 28.304C104.58 27.7493 105.359 27.2907 106.042 26.928C106.404 26.736 106.671 26.64 106.842 26.64C106.991 26.64 107.066 26.6933 107.066 26.8C107.066 26.8853 106.97 27.024 106.778 27.216C106.607 27.408 106.34 27.6 105.978 27.792C105.786 27.8987 105.572 28.0267 105.338 28.176C105.103 28.3253 104.858 28.496 104.602 28.688C104.004 29.1147 103.364 29.6053 102.682 30.16C102.02 30.7147 101.348 31.2693 100.666 31.824C100.004 32.3787 99.3858 32.8693 98.8098 33.296C98.2551 33.7227 97.7964 34.032 97.4338 34.224ZM97.0818 29.04C97.7218 28.8053 98.4044 28.4747 99.1298 28.048C99.8551 27.6213 100.538 27.1733 101.178 26.704C101.818 26.2133 102.33 25.776 102.714 25.392L102.874 25.232C102.874 25.1893 102.746 25.264 102.49 25.456L99.8018 27.44C99.7804 27.4613 99.7484 27.472 99.7058 27.472C99.6844 27.472 99.6951 27.4507 99.7378 27.408C99.7804 27.344 99.8551 27.28 99.9618 27.216C100.388 26.9173 100.826 26.5867 101.274 26.224C101.722 25.84 102.148 25.4773 102.554 25.136C103.066 24.7307 103.322 24.4853 103.322 24.4C102.831 24.4 102.202 24.6347 101.434 25.104C100.666 25.5733 99.8871 26.16 99.0978 26.864C98.3298 27.568 97.6578 28.2933 97.0818 29.04ZM104.622 34C104.259 33.9573 103.971 33.7547 103.758 33.392C103.544 33.008 103.438 32.6453 103.438 32.304C103.438 32.0267 103.587 31.5893 103.886 30.992C104.206 30.3947 104.6 29.7227 105.07 28.976C105.56 28.208 106.062 27.4613 106.574 26.736C107.107 25.9893 107.576 25.328 107.982 24.752C108.408 24.176 108.707 23.7707 108.878 23.536C108.6 23.792 108.344 24.048 108.11 24.304C107.875 24.56 107.736 24.688 107.694 24.688C107.672 24.688 107.779 24.496 108.014 24.112C108.27 23.7067 108.76 22.9813 109.486 21.936C109.699 21.936 109.955 22.0533 110.254 22.288C110.552 22.5227 110.819 22.7893 111.054 23.088C111.288 23.3867 111.406 23.6427 111.406 23.856C111.171 24.24 110.798 24.7307 110.286 25.328C109.795 25.904 109.272 26.5013 108.718 27.12C108.184 27.7387 107.704 28.304 107.278 28.816C107.342 28.752 107.598 28.528 108.046 28.144C108.515 27.76 109.091 27.28 109.774 26.704C110.456 26.128 111.182 25.52 111.95 24.88C112.739 24.24 113.486 23.6427 114.19 23.088C114.894 22.512 115.491 22.0533 115.982 21.712C116.494 21.3493 116.814 21.168 116.942 21.168C117.07 21.168 117.251 21.296 117.486 21.552C117.742 21.7867 117.976 22.0533 118.19 22.352C118.403 22.6507 118.51 22.896 118.51 23.088C118.51 23.1093 118.35 23.2907 118.03 23.632C117.731 23.9733 117.347 24.4107 116.878 24.944C116.43 25.456 115.982 26 115.534 26.576C115.086 27.1307 114.702 27.6533 114.382 28.144C114.083 28.6347 113.944 28.9973 113.966 29.232C113.752 29.1893 113.571 28.9973 113.422 28.656C113.272 28.2933 113.198 27.888 113.198 27.44C113.198 27.184 113.272 26.8747 113.422 26.512C113.592 26.1493 113.774 25.7973 113.966 25.456C114.179 25.1147 114.36 24.816 114.51 24.56C114.68 24.304 114.766 24.1653 114.766 24.144C114.638 24.2933 114.456 24.5387 114.222 24.88C114.008 25.2213 113.795 25.5627 113.582 25.904C113.39 26.224 113.262 26.4587 113.198 26.608C113.262 26.352 113.443 25.936 113.742 25.36C114.04 24.784 114.435 24.208 114.926 23.632C114.691 23.8453 114.286 24.208 113.71 24.72C113.155 25.2107 112.515 25.7973 111.79 26.48C111.064 27.1627 110.307 27.8773 109.518 28.624C108.75 29.3493 108.014 30.064 107.31 30.768C106.606 31.472 106.008 32.112 105.518 32.688C105.048 33.2427 104.75 33.68 104.622 34ZM118.214 34.224C117.744 34.224 117.243 34.0427 116.71 33.68C116.176 33.3173 115.718 32.8907 115.334 32.4C114.971 31.9093 114.79 31.4613 114.79 31.056C114.79 30.416 114.96 29.7333 115.302 29.008C115.643 28.2613 116.091 27.5147 116.646 26.768C117.2 26.0213 117.819 25.328 118.502 24.688C119.184 24.0267 119.867 23.472 120.55 23.024C120.592 22.7893 120.774 22.5547 121.094 22.32C121.414 22.064 121.798 21.936 122.246 21.936C122.502 21.936 122.747 21.9787 122.982 22.064C123.238 22.064 123.536 22.2453 123.878 22.608C124.219 22.9493 124.528 23.3227 124.806 23.728C125.083 24.1333 125.243 24.4427 125.286 24.656C125.286 24.976 125.115 25.3173 124.774 25.68C124.432 26.0213 124.059 26.32 123.654 26.576C123.27 26.832 122.992 26.96 122.822 26.96C122.736 26.96 122.694 26.928 122.694 26.864C122.694 26.736 122.832 26.5013 123.11 26.16C123.216 26.0533 123.344 25.8827 123.494 25.648C123.643 25.4133 123.782 25.1787 123.91 24.944C124.038 24.7093 124.102 24.528 124.102 24.4C123.696 24.4213 123.174 24.6027 122.534 24.944C121.915 25.2853 121.264 25.7333 120.582 26.288C119.92 26.8427 119.291 27.44 118.694 28.08C118.096 28.72 117.606 29.36 117.222 30C116.859 30.6187 116.678 31.1627 116.678 31.632C116.678 31.8453 116.731 32.0373 116.838 32.208C116.944 32.3573 117.158 32.4213 117.478 32.4C117.798 32.2933 118.171 32.1227 118.598 31.888C119.046 31.6533 119.515 31.3867 120.006 31.088L119.366 31.664C119.302 31.728 119.184 31.8667 119.014 32.08C118.843 32.272 118.8 32.3467 118.886 32.304C119.312 31.9413 119.792 31.5573 120.326 31.152C120.88 30.7253 121.456 30.288 122.054 29.84C121.712 30.0533 121.36 30.2773 120.998 30.512C120.656 30.7253 120.326 30.9173 120.006 31.088L121.766 29.776C122.619 29.136 123.419 28.5813 124.166 28.112C124.912 27.6427 125.627 27.2587 126.31 26.96C125.712 27.3227 125.062 27.7493 124.358 28.24C123.675 28.7093 122.982 29.1893 122.278 29.68C123.088 29.168 123.888 28.6667 124.678 28.176C125.488 27.6853 126.203 27.2693 126.822 26.928C127.184 26.736 127.451 26.64 127.622 26.64C127.771 26.64 127.846 26.6933 127.846 26.8C127.846 26.8853 127.75 27.024 127.558 27.216C127.387 27.408 127.12 27.6 126.758 27.792C126.31 28.0267 125.787 28.3787 125.19 28.848C124.592 29.296 123.952 29.7973 123.27 30.352C122.587 30.9067 121.915 31.4507 121.254 31.984C120.614 32.5173 120.027 32.9867 119.494 33.392C119.238 33.584 119.003 33.7547 118.79 33.904C118.576 34.032 118.384 34.1387 118.214 34.224ZM129.278 34.224C128.808 34.224 128.307 34.0427 127.774 33.68C127.24 33.3173 126.782 32.8907 126.398 32.4C126.035 31.9093 125.854 31.4613 125.854 31.056C125.854 30.288 126.078 29.4667 126.526 28.592C126.995 27.696 127.592 26.8213 128.318 25.968C129.064 25.1147 129.854 24.3573 130.686 23.696C131.518 23.0347 132.318 22.5547 133.086 22.256C133.299 22.1707 133.491 22.1173 133.661 22.096C133.832 22.0747 133.96 22.064 134.046 22.064C134.302 22.064 134.6 22.2453 134.942 22.608C135.283 22.9493 135.592 23.3227 135.87 23.728C136.147 24.1333 136.307 24.4427 136.35 24.656C136.35 24.9973 136.147 25.4133 135.742 25.904C135.358 26.3733 134.846 26.864 134.206 27.376C133.566 27.8667 132.872 28.3253 132.126 28.752C131.4 29.1787 130.696 29.52 130.014 29.776C129.331 30.0107 128.744 30.1173 128.254 30.096C127.912 30.7147 127.742 31.2267 127.742 31.632C127.742 31.8453 127.795 32.0373 127.902 32.208C128.008 32.3573 128.222 32.4213 128.542 32.4C129.054 32.2293 129.694 31.92 130.462 31.472C131.23 31.024 132.051 30.5227 132.926 29.968C133.822 29.392 134.696 28.8373 135.55 28.304C136.424 27.7493 137.203 27.2907 137.886 26.928C138.248 26.736 138.515 26.64 138.686 26.64C138.835 26.64 138.91 26.6933 138.91 26.8C138.91 26.8853 138.814 27.024 138.622 27.216C138.451 27.408 138.184 27.6 137.822 27.792C137.63 27.8987 137.416 28.0267 137.182 28.176C136.947 28.3253 136.702 28.496 136.446 28.688C135.848 29.1147 135.208 29.6053 134.526 30.16C133.864 30.7147 133.192 31.2693 132.51 31.824C131.848 32.3787 131.23 32.8693 130.654 33.296C130.099 33.7227 129.64 34.032 129.278 34.224ZM128.926 29.04C129.566 28.8053 130.248 28.4747 130.974 28.048C131.699 27.6213 132.382 27.1733 133.022 26.704C133.662 26.2133 134.174 25.776 134.558 25.392L134.718 25.232C134.718 25.1893 134.59 25.264 134.334 25.456L131.646 27.44C131.624 27.4613 131.592 27.472 131.55 27.472C131.528 27.472 131.539 27.4507 131.582 27.408C131.624 27.344 131.699 27.28 131.806 27.216C132.232 26.9173 132.67 26.5867 133.118 26.224C133.566 25.84 133.992 25.4773 134.398 25.136C134.91 24.7307 135.166 24.4853 135.166 24.4C134.675 24.4 134.046 24.6347 133.278 25.104C132.51 25.5733 131.731 26.16 130.942 26.864C130.174 27.568 129.502 28.2933 128.926 29.04ZM151.734 36.16C151.734 36.04 151.818 35.872 151.986 35.656C152.154 35.464 152.37 35.224 152.634 34.936C153.234 34.264 153.714 33.7 154.074 33.244C154.434 32.764 154.65 32.464 154.722 32.344C154.458 32.632 154.146 33.004 153.786 33.46C153.45 33.892 153.054 34.336 152.598 34.792C152.886 34.456 153.162 34.096 153.426 33.712C153.69 33.328 153.906 33.004 154.074 32.74C154.242 32.476 154.314 32.344 154.29 32.344L148.674 32.704C148.626 32.752 148.602 32.788 148.602 32.812C148.698 32.812 148.854 32.812 149.07 32.812C149.286 32.788 149.466 32.776 149.61 32.776C149.778 32.752 149.79 32.752 149.646 32.776L148.53 32.884C148.122 33.436 147.378 33.916 146.298 34.324C145.914 34.252 145.614 34.108 145.398 33.892C145.206 33.652 145.062 33.388 144.966 33.1C144.87 33.1 144.774 33.112 144.678 33.136C144.606 33.136 144.534 33.136 144.462 33.136C144.198 33.136 143.766 33.172 143.166 33.244C142.59 33.316 142.014 33.388 141.438 33.46C140.862 33.508 140.478 33.544 140.286 33.568C140.238 33.568 140.202 33.58 140.178 33.604C140.13 33.604 140.082 33.604 140.034 33.604C139.746 33.604 139.602 33.52 139.602 33.352C139.602 33.184 139.782 32.992 140.142 32.776C140.478 32.536 140.874 32.38 141.33 32.308C141.522 32.26 141.954 32.212 142.626 32.164C143.322 32.092 144.078 32.008 144.894 31.912C144.894 31.744 144.906 31.588 144.93 31.444C144.978 31.3 145.014 31.18 145.038 31.084C145.206 30.532 145.602 29.74 146.226 28.708C146.874 27.652 147.642 26.476 148.53 25.18C149.442 23.884 150.378 22.576 151.338 21.256C152.298 19.936 153.21 18.712 154.074 17.584C154.938 16.432 155.634 15.496 156.162 14.776L150.222 15.424C150.054 15.52 149.898 15.568 149.754 15.568C149.586 15.568 149.454 15.484 149.358 15.316C149.262 15.124 149.214 14.908 149.214 14.668C149.214 14.404 149.25 14.128 149.322 13.84C149.418 13.528 149.526 13.24 149.646 12.976H149.718C149.718 12.568 149.922 12.364 150.33 12.364C150.522 12.364 150.726 12.388 150.942 12.436C151.182 12.484 151.422 12.508 151.662 12.508C152.07 12.484 152.502 12.436 152.958 12.364C153.414 12.268 153.678 12.148 153.75 12.004C153.846 11.86 153.918 11.788 153.966 11.788C154.038 11.788 154.11 11.908 154.182 12.148C154.206 12.196 154.218 12.268 154.218 12.364C154.218 12.532 154.158 12.712 154.038 12.904L156.882 12.796C156.906 12.724 156.918 12.652 156.918 12.58C156.894 12.508 156.87 12.436 156.846 12.364C156.822 12.268 156.81 12.184 156.81 12.112C156.81 11.92 156.918 11.824 157.134 11.824C157.182 11.824 157.302 11.848 157.494 11.896C157.686 11.968 157.926 12.076 158.214 12.22C158.502 12.34 158.79 12.496 159.078 12.688H159.69L160.23 12.652C161.742 12.556 162.906 12.424 163.722 12.256C164.538 12.088 165.114 11.92 165.45 11.752C165.81 11.584 166.026 11.44 166.098 11.32C166.17 11.176 166.23 11.092 166.278 11.068C166.374 11.02 166.434 10.996 166.458 10.996C166.53 10.996 166.566 11.032 166.566 11.104C166.566 11.248 166.482 11.404 166.314 11.572C166.242 11.668 166.278 11.776 166.422 11.896C166.566 12.016 166.722 12.148 166.89 12.292C167.082 12.412 167.178 12.544 167.178 12.688C167.178 12.832 167.022 12.988 166.71 13.156C166.422 13.3 165.894 13.456 165.126 13.624C164.358 13.768 163.242 13.936 161.778 14.128C161.754 14.128 161.574 14.284 161.238 14.596C160.926 14.884 160.542 15.256 160.086 15.712C159.654 16.168 159.21 16.624 158.754 17.08C158.322 17.512 157.95 17.884 157.638 18.196C157.326 18.508 157.146 18.664 157.098 18.664C157.074 18.664 157.182 18.52 157.422 18.232C157.686 17.92 158.01 17.548 158.394 17.116C158.778 16.66 159.162 16.216 159.546 15.784C159.954 15.328 160.278 14.956 160.518 14.668C160.782 14.38 160.902 14.236 160.878 14.236L160.338 14.272C160.338 14.392 160.326 14.488 160.302 14.56C160.014 14.872 159.558 15.388 158.934 16.108C158.334 16.804 157.626 17.632 156.81 18.592C155.994 19.552 155.142 20.572 154.254 21.652C153.366 22.708 152.49 23.752 151.626 24.784C150.786 25.816 150.018 26.764 149.322 27.628C148.65 28.468 148.11 29.152 147.702 29.68C147.51 29.92 147.354 30.184 147.234 30.472C147.138 30.736 147.078 30.892 147.054 30.94C147.726 31.036 148.206 31.228 148.494 31.516L148.89 31.48C149.754 31.408 150.81 31.216 152.058 30.904C153.306 30.592 154.59 30.436 155.91 30.436H155.946C156.066 30.436 156.186 30.484 156.306 30.58C156.45 30.676 156.546 30.724 156.594 30.724C156.786 30.724 156.942 30.856 157.062 31.12C157.182 31.384 157.242 31.576 157.242 31.696C157.242 31.792 157.062 32.008 156.702 32.344C156.366 32.656 155.934 33.028 155.406 33.46C154.878 33.892 154.338 34.312 153.786 34.72C153.258 35.128 152.79 35.464 152.382 35.728C151.998 36.016 151.782 36.16 151.734 36.16ZM166.921 36.16C166.921 36.04 167.005 35.872 167.173 35.656C167.341 35.464 167.557 35.224 167.821 34.936C168.421 34.264 168.901 33.7 169.261 33.244C169.621 32.764 169.837 32.464 169.909 32.344C169.645 32.632 169.333 33.004 168.973 33.46C168.637 33.892 168.241 34.336 167.785 34.792C168.073 34.456 168.349 34.096 168.613 33.712C168.877 33.328 169.093 33.004 169.261 32.74C169.429 32.476 169.501 32.344 169.477 32.344L163.861 32.704C163.813 32.752 163.789 32.788 163.789 32.812C163.885 32.812 164.041 32.812 164.257 32.812C164.473 32.788 164.653 32.776 164.797 32.776C164.965 32.752 164.977 32.752 164.833 32.776L163.717 32.884C163.309 33.436 162.565 33.916 161.485 34.324C161.101 34.252 160.801 34.108 160.585 33.892C160.393 33.652 160.249 33.388 160.153 33.1C160.057 33.1 159.961 33.112 159.865 33.136C159.793 33.136 159.721 33.136 159.649 33.136C159.385 33.136 158.953 33.172 158.353 33.244C157.777 33.316 157.201 33.388 156.625 33.46C156.049 33.508 155.665 33.544 155.473 33.568C155.425 33.568 155.389 33.58 155.365 33.604C155.317 33.604 155.269 33.604 155.221 33.604C154.933 33.604 154.789 33.52 154.789 33.352C154.789 33.184 154.969 32.992 155.329 32.776C155.665 32.536 156.061 32.38 156.517 32.308C156.709 32.26 157.141 32.212 157.813 32.164C158.509 32.092 159.265 32.008 160.081 31.912C160.081 31.744 160.093 31.588 160.117 31.444C160.165 31.3 160.201 31.18 160.225 31.084C160.393 30.532 160.789 29.74 161.413 28.708C162.061 27.652 162.829 26.476 163.717 25.18C164.629 23.884 165.565 22.576 166.525 21.256C167.485 19.936 168.397 18.712 169.261 17.584C170.125 16.432 170.821 15.496 171.349 14.776L165.409 15.424C165.241 15.52 165.085 15.568 164.941 15.568C164.773 15.568 164.641 15.484 164.545 15.316C164.449 15.124 164.401 14.908 164.401 14.668C164.401 14.404 164.437 14.128 164.509 13.84C164.605 13.528 164.713 13.24 164.833 12.976H164.905C164.905 12.568 165.109 12.364 165.517 12.364C165.709 12.364 165.913 12.388 166.129 12.436C166.369 12.484 166.609 12.508 166.849 12.508C167.257 12.484 167.689 12.436 168.145 12.364C168.601 12.268 168.865 12.148 168.937 12.004C169.033 11.86 169.105 11.788 169.153 11.788C169.225 11.788 169.297 11.908 169.369 12.148C169.393 12.196 169.405 12.268 169.405 12.364C169.405 12.532 169.345 12.712 169.225 12.904L172.069 12.796C172.093 12.724 172.105 12.652 172.105 12.58C172.081 12.508 172.057 12.436 172.033 12.364C172.009 12.268 171.997 12.184 171.997 12.112C171.997 11.92 172.105 11.824 172.321 11.824C172.369 11.824 172.489 11.848 172.681 11.896C172.873 11.968 173.113 12.076 173.401 12.22C173.689 12.34 173.977 12.496 174.265 12.688H174.877L175.417 12.652C176.929 12.556 178.093 12.424 178.909 12.256C179.725 12.088 180.301 11.92 180.637 11.752C180.997 11.584 181.213 11.44 181.285 11.32C181.357 11.176 181.417 11.092 181.465 11.068C181.561 11.02 181.621 10.996 181.645 10.996C181.717 10.996 181.753 11.032 181.753 11.104C181.753 11.248 181.669 11.404 181.501 11.572C181.429 11.668 181.465 11.776 181.609 11.896C181.753 12.016 181.909 12.148 182.077 12.292C182.269 12.412 182.365 12.544 182.365 12.688C182.365 12.832 182.209 12.988 181.897 13.156C181.609 13.3 181.081 13.456 180.313 13.624C179.545 13.768 178.429 13.936 176.965 14.128C176.941 14.128 176.761 14.284 176.425 14.596C176.113 14.884 175.729 15.256 175.273 15.712C174.841 16.168 174.397 16.624 173.941 17.08C173.509 17.512 173.137 17.884 172.825 18.196C172.513 18.508 172.333 18.664 172.285 18.664C172.261 18.664 172.369 18.52 172.609 18.232C172.873 17.92 173.197 17.548 173.581 17.116C173.965 16.66 174.349 16.216 174.733 15.784C175.141 15.328 175.465 14.956 175.705 14.668C175.969 14.38 176.089 14.236 176.065 14.236L175.525 14.272C175.525 14.392 175.513 14.488 175.489 14.56C175.201 14.872 174.745 15.388 174.121 16.108C173.521 16.804 172.813 17.632 171.997 18.592C171.181 19.552 170.329 20.572 169.441 21.652C168.553 22.708 167.677 23.752 166.813 24.784C165.973 25.816 165.205 26.764 164.509 27.628C163.837 28.468 163.297 29.152 162.889 29.68C162.697 29.92 162.541 30.184 162.421 30.472C162.325 30.736 162.265 30.892 162.241 30.94C162.913 31.036 163.393 31.228 163.681 31.516L164.077 31.48C164.941 31.408 165.997 31.216 167.245 30.904C168.493 30.592 169.777 30.436 171.097 30.436H171.133C171.253 30.436 171.373 30.484 171.493 30.58C171.637 30.676 171.733 30.724 171.781 30.724C171.973 30.724 172.129 30.856 172.249 31.12C172.369 31.384 172.429 31.576 172.429 31.696C172.429 31.792 172.249 32.008 171.889 32.344C171.553 32.656 171.121 33.028 170.593 33.46C170.065 33.892 169.525 34.312 168.973 34.72C168.445 35.128 167.977 35.464 167.569 35.728C167.185 36.016 166.969 36.16 166.921 36.16Z" fill="black"/>
</g>
<defs>
<filter id="filter0_i_1_5" x="20.576" y="10.996" width="161.789" height="29.164" filterUnits="userSpaceOnUse" color-interpolation-filters="sRGB">
<feFlood flood-opacity="0" result="BackgroundImageFix"/>
<feBlend mode="normal" in="SourceGraphic" in2="BackgroundImageFix" result="shape"/>
<feColorMatrix in="SourceAlpha" type="matrix" values="0 0 0 0 0 0 0 0 0 0 0 0 0 0 0 0 0 0 127 0" result="hardAlpha"/>
<feOffset dy="4"/>
<feGaussianBlur stdDeviation="2"/>
<feComposite in2="hardAlpha" operator="arithmetic" k2="-1" k3="1"/>
<feColorMatrix type="matrix" values="0 0 0 0 0 0 0 0 0 0 0 0 0 0 0 0 0 0 0.25 0"/>
<feBlend mode="normal" in2="shape" result="effect1_innerShadow_1_5"/>
</filter>
</defs>
</svg>
